/* XPM */
static char *_4d6f56d01134260e58810750b9356b4ROtPduX0AH4d62C2[] = {
/* columns rows colors chars-per-pixel */
"32 32 8 1 ",
"  c None",
". c black",
"X c #00FFD5",
"o c #00FFD6",
"O c #00FFD9",
"+ c #00FFDA",
"@ c #00FFDB",
"# c #00FFDC",
/* pixels */
"XXX       XXX      XXX       XXX",
"XXX       XXX      XXX       XXX",
"XXX       XXX      XXX       XXX",
"XXX       XXX      XXX       XXX",
"XXXXXX    XXXXXXXXXXXX    XXXXXX",
"XXXXXX    XXXXXXXXXXXX    +XXXXX",
"XXXXXX    XXXXXXXXXXXX    +XXXXX",
"XXXXXX    ###XXX+##XXX    +XXXXX",
"   XXXXXXX...+X+...XXX    XXX   ",
"   XXXXXXX...+X+...XXXXXXXXXX   ",
"   XXXXXXX...+X+...XXXXXXXXXX   ",
"   XXXXXXX...+X+...XXXXXXXXXX   ",
"   XXXXXXX...+X+...XXXXXXXXX+   ",
"   XXXXXXX...+X+...XXXXXXXXX+   ",
"   XXXXXXX...+X+...XXXXXXXXX+   ",
"   XXXXXXX...+X+...XXXXXXXXX+   ",
"   XXXXXXXXXXXXXXXXXXXXXXXXX+   ",
"   XXXXXXXXXXXXXXXXXXXXXXXXX+   ",
"   XXXXXXXXXXXXXXXXXXXXXXXXX+   ",
"   XXXXXXXXXXXXXXXXXXXXXXXXX+   ",
"      XXXXXXXXXXXXXXXXXXXX      ",
"      XXXXXXXXXXXXXXXXXXXX      ",
"      XXXXXXXXXXXXXXXXXXXX      ",
"      XXXXXXXXXXXXXXXXXXXX      ",
"      XXXXXXXXXXXXXXXXXXXX      ",
"      XXXXXXXXXXXXXXXXXXXX      ",
"      XXXXXXXXXXXXXXXXXXXX      ",
"      XXXXXXXXXXXXXXXXXXXX      ",
"      XXXXXXXXXXXXXXXXXXXX      ",
"          XXX      XXX          ",
"          XXX      XXX          ",
"          XXX      XXX          "
};
