/* XPM */
static char *eae9273517bf4d949b124bb248caedb8pH5UiJwVtL4qJ7wh[] = {
/* columns rows colors chars-per-pixel */
"32 32 8 1 ",
"  c None",
". c black",
"X c #00FFD5",
"o c #00FFD6",
"O c #00FFD7",
"+ c #00FFD8",
"@ c #00FFD9",
"# c #00FFDA",
/* pixels */
"          XXX      XXX          ",
"          XXX      XXX          ",
"          XXX      XXX          ",
"          XXX      XXX          ",
"          XXXXXXXXXXXX          ",
"          XXXXXXXXXXXX          ",
"          XXXXXXXXXXXX          ",
"          XXXXXXXXXXXX          ",
"          XXXXXXXXXXXX          ",
"          XXXXXXXXXXXX          ",
"          XXXXXXXXXXXX          ",
"          ###XXX###XXX          ",
"      XXXX...#X#...XXXXXXX      ",
"      XXXX...#X#...XXXXXXX      ",
"      XXXX...#X#...XXXXXXX      ",
"      XXXX...#X#...XXXXXXX      ",
"   XXXXXXX...XXX...XXXXXXXXXX   ",
"   XXXXXXXXXXXXXXXXXXXXXXXXXX   ",
"   XXXXXXXXXXXXXXXXXXXXXXXXXX   ",
"XXXXXXXXXXXXXXXXXXXXXXXXXXXXXXXX",
"XXXXXXXXXXXXXXXXXXXXXXXXXXXXXXXX",
"XXXXXXXXXXXXXXXXXXXXXXXXXXXXXXXX",
"XXXXXXXXXXXXXXXXXXXXXXXXXXXXXXXX",
"XXXXXXXXXXXXXXXXXXXXXXXXXXXXXXXX",
"XXXXXXXXXXXXXXXXXXXXXXXXXXXXXXXX",
"XXXXXXXXXXXXXXXXXXXXXXXXXXXXXXXX",
"XXXXXXXXXXXXXXXXXXXXXXXXXXXXXXXX",
"XXXXXXXXXXXXXXXXXXXXXXXXXXXXXXXX",
"XXXXXXXXXXXXXXXXXXXXXXXXXXXXXXXX",
"XXX      XXXX      XXXX      XXX",
"XXX      XXXX      XXXX      XXX",
"XXX      XXXX      XXXX      XXX"
};
