/* XPM */
static char *_6214f1aed3340b9ef8f3b930ca93260izGjIKhZlMUx5xGH[] = {
/* columns rows colors chars-per-pixel */
"32 32 31 1 ",
"  c None",
". c #B6AC4C",
"X c #C3B74A",
"o c #C4B84C",
"O c #CBBF4D",
"+ c #CCBF4E",
"@ c #C2B751",
"# c #DCCE52",
"$ c #DCCF53",
"% c #D6CA58",
"& c #D7CB59",
"* c #DED052",
"= c #DED157",
"- c #DED159",
"; c #E3D555",
": c #E4D657",
"> c #EADB57",
", c #E6D95B",
"< c #EBDD5A",
"1 c #F0E04F",
"2 c #F0E050",
"3 c #F1E151",
"4 c #F2E252",
"5 c #F2E253",
"6 c #F2E354",
"7 c #F3E355",
"8 c #F3E357",
"9 c #F3E456",
"0 c #F4E558",
"q c #F5E559",
"w c #F5E65B",
/* pixels */
"                                ",
"                                ",
"                                ",
"                                ",
"            %>>>>>><            ",
"            #1111112            ",
"            #1111112            ",
"            -8888880            ",
"        %;;,        @;;:        ",
"        ;119        O112        ",
"        ;119        O112        ",
"        ;119        O112        ",
"        ;112*##=    O112        ",
"        ;1111118    O112        ",
"        ;1111118    O112        ",
"        ;1111118    O112        ",
"        ;1111118    O112        ",
"        ;1111118    O112        ",
"        ;1111118    O112        ",
"        ;1112220    O112        ",
"        ;118        O112        ",
"        ;119        O112        ",
"        ;119        O112        ",
"        :220        +228        ",
"            .XXXXXXo            ",
"            #1111112            ",
"            #1111112            ",
"            #2222228            ",
"                                ",
"                                ",
"                                ",
"                                "
};
