/* XPM */
static char *_0830fdc999c4560a0be79d44828979dnbq0wwBYFcWe12nT[] = {
/* columns rows colors chars-per-pixel */
"32 32 40 1 ",
"  c None",
". c black",
"X c #010100",
"o c #060600",
"O c #121100",
"+ c #121200",
"@ c #1B1A00",
"# c #3C3A00",
"$ c #3E3C00",
"% c #464500",
"& c #474600",
"* c #525100",
"= c #5C5B00",
"- c #5D5B00",
"; c #5F5E00",
": c #636200",
"> c #6A6600",
", c #737100",
"< c #747100",
"1 c #767400",
"2 c #797800",
"3 c #7E7A00",
"4 c #878600",
"5 c #8D8800",
"6 c #8E8B00",
"7 c #8E8C00",
"8 c #9C9900",
"9 c #A3A000",
"0 c #B4AF00",
"q c #BEB800",
"w c #CDC800",
"e c #CEC900",
"r c #E9E300",
"t c #F4ED00",
"y c #F6EF00",
"u c #FBF300",
"i c #FCF400",
"p c #FFF700",
"a c #FFF900",
"s c #FFFB00",
/* pixels */
"  ............................  ",
"  ............................  ",
"....&0000000000000000000000,....",
"....:pppppppppppppppppppppp9....",
"..&:288888888888888888888884:;..",
"..0p8......................=py..",
"..0p8..++++++++++++++++++o.=py..",
"..0p8.+ssssssssssssssssss*.=py..",
"..0p8.+sppppppppppppppppp*.=py..",
"..0p8.+sp>#############pp*.=py..",
"..0p8.+sp#.............up*.=py..",
"..0p8.+sp#.$33333333=..up*.=py..",
"..0p8.+sp#.3ppppppppq..up*.=py..",
"..0p8.+sp#.3pyeeeerpq..up*.=py..",
"..0p8.+sp#.3pe....5pq..up*.=py..",
"..0p8.+sp#.3pe....7pq..up*.=py..",
"..0p8.+sp#.3pe....7pq..up*.=py..",
"..0p8.+sp#.3pe....7pq..up*.=py..",
"..0p8.+sp#.3pr7777epq..up*.=py..",
"..0p8.+sp#.3ppppppppq..up*.=py..",
"..0p8.+sp#.=qqqqqqqq5..up*.=py..",
"..0p8.+sp#.............up*.=py..",
"..0p8.+sp#.............up*.=py..",
"..0p8.+sppuuuuuuuuuuuuupp*.=py..",
"..0p8.+sppppppppppppppppp*.=py..",
"..0p8.o******************@.=py..",
"..0p8......................=py..",
"..<94======================198..",
"....:pppppppppppppppppppppp9....",
"....;yyyyyyyyyyyyyyyyyyyyyy8....",
"  ............................  ",
"  ............................  "
};
