/* XPM */
static char *_468d10d6b364fbdaa6f8a70fa719485KOY05C06c7WFgJCT[] = {
/* columns rows colors chars-per-pixel */
"32 32 43 1 ",
"  c black",
". c #050006",
"X c #060108",
"o c #0F0112",
"O c #110012",
"+ c #120114",
"@ c #17001A",
"# c #15011C",
"$ c #18001C",
"% c #1F0127",
"& c #200027",
"* c #23002B",
"= c #2B0133",
"- c #2B0035",
"; c #2E013A",
": c #30003A",
"> c #33003D",
", c #370043",
"< c #470055",
"1 c #550065",
"2 c #59006A",
"3 c #66017B",
"4 c #67007C",
"5 c #720089",
"6 c #790090",
"7 c #83009A",
"8 c #83009C",
"9 c #84019D",
"0 c #8C00A7",
"q c #9300B1",
"w c #9400B1",
"e c #9A00BA",
"r c #9C00BB",
"t c #9C00BC",
"y c #A200C3",
"u c #A400C3",
"i c #A900CD",
"p c #BD00E2",
"a c #C500ED",
"s c #D300FB",
"d c #D500FB",
"f c #D300FD",
"g c #D500FD",
/* pixels */
"                                ",
"    XooooooooooooooooooooooX    ",
"    ,8888888887888888888888,    ",
"    2gfgfffffsfgffgggfgfgfg2    ",
" X,20ffffffffffffffffffffff02,X ",
" o8gfffffffsfffffffffffsffffg8o ",
" o8fffsffewqqqqyaffffffffsfff8o ",
" o8gfffgf>%%%%%<ifffffffgfffg8o ",
" o8ffffgg#     ;ufffffffgffff8o ",
" o8fffe>#      .+#######>efff8o ",
" O8fffq%                %qfff8O ",
" o9fgfq% 35551    15553 %qfgf9o ",
" o8fffq% pfffr    tffgp *qfff8o ",
" o8fffq% pfffr    rgfsp %qfff8o ",
" o9fgfq% pfffr    rffgp %qfgf8o ",
" o7fgfq% pfffe    6yuuq *qfff7o ",
" o7fgfq% pfffr    *:::- *qfff7o ",
" o9fgfq% pffgr          %qfgf8o ",
" o8fffq% pffft *6rtr1   %qfff8o ",
" o8fffq% psffr :ufff5   *qfff8o ",
" o9fgfq% 35551 :ugff5   %qfgf9o ",
" O8fffq%       :ufff5   %qfff8O ",
" o8fffe>@      =qppp4  #>efff8o ",
" o8ffffgg$            #dgffff8o ",
" o8gfffgg>%%%%&%%&%%%%>ggfffg8o ",
" o8fffsffeqqqqqqqqqqqqeffsfff8o ",
" o8gffffffffffffffffffffffffg8o ",
" X,20ffffffffffggffffffffff02,X ",
"    2gfgffffffffffffffffgfg2    ",
"    ,8888889889779889888888,    ",
"    XoooooOooooooooooOoooooX    ",
"                                "
};
